<mxfile host="app.diagrams.net" agent="Mozilla/5.0 (Windows NT 10.0; Win64; x64) AppleWebKit/537.36 (KHTML, like Gecko) Chrome/137.0.0.0 Safari/537.36" scale="1" border="20" version="27.1.4">
  <diagram name="Page-1" id="58cdce13-f638-feb5-8d6f-7d28b1aa9fa0">
    <mxGraphModel dx="2194" dy="1205" grid="1" gridSize="10" guides="1" tooltips="1" connect="1" arrows="1" fold="1" page="1" pageScale="1" pageWidth="1100" pageHeight="850" background="none" math="0" shadow="0">
      <root>
        <mxCell id="0" />
        <mxCell id="1" parent="0" />
        <mxCell id="pa2VXU8jz2tNjKxrIKRh-38" style="edgeStyle=orthogonalEdgeStyle;rounded=0;orthogonalLoop=1;jettySize=auto;html=1;entryX=0;entryY=0.5;entryDx=0;entryDy=0;" edge="1" parent="1" source="pa2VXU8jz2tNjKxrIKRh-35" target="pa2VXU8jz2tNjKxrIKRh-37">
          <mxGeometry relative="1" as="geometry" />
        </mxCell>
        <mxCell id="pa2VXU8jz2tNjKxrIKRh-35" value="" style="rounded=0;whiteSpace=wrap;html=1;fillColor=#FFFFC0;" vertex="1" parent="1">
          <mxGeometry x="710" y="50" width="640" height="560" as="geometry" />
        </mxCell>
        <mxCell id="382b91b5511bd0f7-1" value="" style="ellipse;html=1;shape=startState;fillColor=#000000;strokeColor=#ff0000;rounded=1;shadow=0;comic=0;labelBackgroundColor=none;fontFamily=Helvetica;fontSize=12;fontColor=#000000;align=center;direction=south;" parent="1" vertex="1">
          <mxGeometry x="170" y="315" width="30" height="30" as="geometry" />
        </mxCell>
        <mxCell id="pa2VXU8jz2tNjKxrIKRh-36" value="Admin chọn các chức năng" style="edgeStyle=orthogonalEdgeStyle;rounded=0;orthogonalLoop=1;jettySize=auto;html=1;fontSize=12;" edge="1" parent="1" source="382b91b5511bd0f7-7" target="pa2VXU8jz2tNjKxrIKRh-35">
          <mxGeometry y="20" relative="1" as="geometry">
            <mxPoint x="-1" as="offset" />
          </mxGeometry>
        </mxCell>
        <mxCell id="382b91b5511bd0f7-7" value="Hiển thị giao diện&amp;nbsp;&lt;div&gt;trang quản lý admin&lt;/div&gt;" style="rounded=1;whiteSpace=wrap;html=1;arcSize=24;fillColor=#ffffc0;strokeColor=#000000;shadow=0;comic=0;labelBackgroundColor=none;fontFamily=Helvetica;fontSize=12;fontColor=#000000;align=center;" parent="1" vertex="1">
          <mxGeometry x="410" y="300" width="120" height="60" as="geometry" />
        </mxCell>
        <mxCell id="2a3bc250acf0617d-10" value="Chọn chức năng admin" style="html=1;labelBackgroundColor=none;endArrow=open;endSize=8;strokeColor=#000000;fontFamily=Helvetica;fontSize=13;align=center;entryX=0;entryY=0.5;exitX=0.5;exitY=0;exitDx=0;exitDy=0;edgeStyle=orthogonalEdgeStyle;fillColor=#000000;" parent="1" source="382b91b5511bd0f7-1" target="382b91b5511bd0f7-7" edge="1">
          <mxGeometry x="-0.0476" y="20" relative="1" as="geometry">
            <mxPoint as="offset" />
            <mxPoint x="209.99999999999955" y="330" as="sourcePoint" />
          </mxGeometry>
        </mxCell>
        <mxCell id="pa2VXU8jz2tNjKxrIKRh-11" value="" style="ellipse;html=1;shape=startState;fillColor=#000000;strokeColor=#ff0000;rounded=1;shadow=0;comic=0;labelBackgroundColor=none;fontFamily=Helvetica;fontSize=12;fontColor=#000000;align=center;direction=south;" vertex="1" parent="1">
          <mxGeometry x="740" y="145" width="30" height="30" as="geometry" />
        </mxCell>
        <mxCell id="pa2VXU8jz2tNjKxrIKRh-12" value="Điền thông tin" style="rounded=1;whiteSpace=wrap;html=1;arcSize=24;fillColor=#FFFFC0;strokeColor=#000000;shadow=0;comic=0;labelBackgroundColor=none;fontFamily=Helvetica;fontSize=12;fontColor=#000000;align=center;" vertex="1" parent="1">
          <mxGeometry x="930" y="130" width="100" height="60" as="geometry" />
        </mxCell>
        <mxCell id="pa2VXU8jz2tNjKxrIKRh-19" value="Admin thêm sản phẩm mới" style="edgeStyle=orthogonalEdgeStyle;rounded=0;orthogonalLoop=1;jettySize=auto;html=1;entryX=0.5;entryY=1;entryDx=0;entryDy=0;fontSize=12;" edge="1" parent="1" source="pa2VXU8jz2tNjKxrIKRh-13" target="pa2VXU8jz2tNjKxrIKRh-12">
          <mxGeometry x="0.027" y="-20" relative="1" as="geometry">
            <Array as="points">
              <mxPoint x="1250" y="240" />
              <mxPoint x="980" y="240" />
            </Array>
            <mxPoint x="1" as="offset" />
          </mxGeometry>
        </mxCell>
        <mxCell id="pa2VXU8jz2tNjKxrIKRh-13" value="Lưu thông tin sản phẩm" style="rounded=1;whiteSpace=wrap;html=1;arcSize=24;fillColor=#ffffc0;strokeColor=#000000;shadow=0;comic=0;labelBackgroundColor=none;fontFamily=Helvetica;fontSize=12;fontColor=#000000;align=center;" vertex="1" parent="1">
          <mxGeometry x="1190" y="130" width="120" height="60" as="geometry" />
        </mxCell>
        <mxCell id="pa2VXU8jz2tNjKxrIKRh-14" value="Admin thêm sản&lt;div&gt;phẩm mới&lt;/div&gt;" style="edgeStyle=orthogonalEdgeStyle;html=1;labelBackgroundColor=none;endArrow=open;endSize=8;strokeColor=light-dark(#000000,#FF9090);fontFamily=Helvetica;fontSize=12;align=center;" edge="1" parent="1" source="pa2VXU8jz2tNjKxrIKRh-11" target="pa2VXU8jz2tNjKxrIKRh-12">
          <mxGeometry y="20" relative="1" as="geometry">
            <mxPoint as="offset" />
          </mxGeometry>
        </mxCell>
        <mxCell id="pa2VXU8jz2tNjKxrIKRh-16" value="Admin xác nhận lưu&lt;div&gt;thông tin sản phẩm&lt;/div&gt;" style="html=1;labelBackgroundColor=none;endArrow=open;endSize=8;strokeColor=#000000;fontFamily=Helvetica;fontSize=12;align=center;entryX=0;entryY=0.5;exitX=1;exitY=0.5;exitDx=0;exitDy=0;edgeStyle=orthogonalEdgeStyle;fillColor=#000000;" edge="1" parent="1" source="pa2VXU8jz2tNjKxrIKRh-12" target="pa2VXU8jz2tNjKxrIKRh-13">
          <mxGeometry y="20" relative="1" as="geometry">
            <mxPoint as="offset" />
          </mxGeometry>
        </mxCell>
        <mxCell id="pa2VXU8jz2tNjKxrIKRh-21" value="" style="ellipse;html=1;shape=startState;fillColor=#000000;strokeColor=#ff0000;rounded=1;shadow=0;comic=0;labelBackgroundColor=none;fontFamily=Helvetica;fontSize=12;fontColor=#000000;align=center;direction=south;" vertex="1" parent="1">
          <mxGeometry x="740" y="305" width="30" height="30" as="geometry" />
        </mxCell>
        <mxCell id="pa2VXU8jz2tNjKxrIKRh-22" value="Xóa sản phẩm" style="rounded=1;whiteSpace=wrap;html=1;arcSize=24;fillColor=#FFFFC0;strokeColor=#000000;shadow=0;comic=0;labelBackgroundColor=none;fontFamily=Helvetica;fontSize=12;fontColor=#000000;align=center;" vertex="1" parent="1">
          <mxGeometry x="930" y="290" width="100" height="60" as="geometry" />
        </mxCell>
        <mxCell id="pa2VXU8jz2tNjKxrIKRh-23" value="Admin tiếp tục xóa sản phẩm" style="edgeStyle=orthogonalEdgeStyle;rounded=0;orthogonalLoop=1;jettySize=auto;html=1;entryX=0.5;entryY=1;entryDx=0;entryDy=0;fontSize=12;" edge="1" parent="1" source="pa2VXU8jz2tNjKxrIKRh-24" target="pa2VXU8jz2tNjKxrIKRh-22">
          <mxGeometry x="0.0256" y="-20" relative="1" as="geometry">
            <Array as="points">
              <mxPoint x="1250" y="400" />
              <mxPoint x="980" y="400" />
            </Array>
            <mxPoint as="offset" />
          </mxGeometry>
        </mxCell>
        <mxCell id="pa2VXU8jz2tNjKxrIKRh-24" value="Cập nhật danh sách sản phẩm" style="rounded=1;whiteSpace=wrap;html=1;arcSize=24;fillColor=#ffffc0;strokeColor=#000000;shadow=0;comic=0;labelBackgroundColor=none;fontFamily=Helvetica;fontSize=12;fontColor=#000000;align=center;" vertex="1" parent="1">
          <mxGeometry x="1190" y="290" width="120" height="60" as="geometry" />
        </mxCell>
        <mxCell id="pa2VXU8jz2tNjKxrIKRh-25" value="Admin xóa sản&lt;div&gt;phẩm&lt;/div&gt;" style="edgeStyle=orthogonalEdgeStyle;html=1;labelBackgroundColor=none;endArrow=open;endSize=8;strokeColor=light-dark(#000000,#FF9090);fontFamily=Helvetica;fontSize=12;align=center;" edge="1" parent="1" source="pa2VXU8jz2tNjKxrIKRh-21" target="pa2VXU8jz2tNjKxrIKRh-22">
          <mxGeometry y="30" relative="1" as="geometry">
            <mxPoint as="offset" />
          </mxGeometry>
        </mxCell>
        <mxCell id="pa2VXU8jz2tNjKxrIKRh-26" value="Cập nhật danh&lt;div&gt;&lt;span style=&quot;background-color: transparent; color: light-dark(rgb(0, 0, 0), rgb(255, 255, 255));&quot;&gt;sách mới&lt;/span&gt;&lt;/div&gt;" style="html=1;labelBackgroundColor=none;endArrow=open;endSize=8;strokeColor=#000000;fontFamily=Helvetica;fontSize=12;align=center;entryX=0;entryY=0.5;exitX=1;exitY=0.5;exitDx=0;exitDy=0;edgeStyle=orthogonalEdgeStyle;fillColor=#000000;" edge="1" parent="1" source="pa2VXU8jz2tNjKxrIKRh-22" target="pa2VXU8jz2tNjKxrIKRh-24">
          <mxGeometry x="-0.125" y="20" relative="1" as="geometry">
            <mxPoint x="-1" as="offset" />
          </mxGeometry>
        </mxCell>
        <mxCell id="pa2VXU8jz2tNjKxrIKRh-28" value="" style="ellipse;html=1;shape=startState;fillColor=#000000;strokeColor=#ff0000;rounded=1;shadow=0;comic=0;labelBackgroundColor=none;fontFamily=Helvetica;fontSize=12;fontColor=#000000;align=center;direction=south;" vertex="1" parent="1">
          <mxGeometry x="740" y="465" width="30" height="30" as="geometry" />
        </mxCell>
        <mxCell id="pa2VXU8jz2tNjKxrIKRh-29" value="Chỉnh sửa thông tin sản phẩm" style="rounded=1;whiteSpace=wrap;html=1;arcSize=24;fillColor=#FFFFC0;strokeColor=#000000;shadow=0;comic=0;labelBackgroundColor=none;fontFamily=Helvetica;fontSize=12;fontColor=#000000;align=center;" vertex="1" parent="1">
          <mxGeometry x="930" y="450" width="100" height="60" as="geometry" />
        </mxCell>
        <mxCell id="pa2VXU8jz2tNjKxrIKRh-30" value="&lt;font style=&quot;font-size: 12px;&quot;&gt;Admin tiếp tục chỉnh sửa sản phẩm&lt;/font&gt;" style="edgeStyle=orthogonalEdgeStyle;rounded=0;orthogonalLoop=1;jettySize=auto;html=1;entryX=0.5;entryY=1;entryDx=0;entryDy=0;" edge="1" parent="1" source="pa2VXU8jz2tNjKxrIKRh-31" target="pa2VXU8jz2tNjKxrIKRh-29">
          <mxGeometry x="0.0256" y="-20" relative="1" as="geometry">
            <Array as="points">
              <mxPoint x="1250" y="560" />
              <mxPoint x="980" y="560" />
            </Array>
            <mxPoint as="offset" />
          </mxGeometry>
        </mxCell>
        <mxCell id="pa2VXU8jz2tNjKxrIKRh-31" value="Cập nhật danh sách sản phẩm" style="rounded=1;whiteSpace=wrap;html=1;arcSize=24;fillColor=#ffffc0;strokeColor=#000000;shadow=0;comic=0;labelBackgroundColor=none;fontFamily=Helvetica;fontSize=12;fontColor=#000000;align=center;" vertex="1" parent="1">
          <mxGeometry x="1190" y="450" width="120" height="60" as="geometry" />
        </mxCell>
        <mxCell id="pa2VXU8jz2tNjKxrIKRh-32" value="Admin chỉnh sửa&lt;div&gt;&lt;span style=&quot;background-color: transparent; color: light-dark(rgb(0, 0, 0), rgb(255, 255, 255));&quot;&gt;sản&amp;nbsp;&lt;/span&gt;&lt;span style=&quot;background-color: transparent; color: light-dark(rgb(0, 0, 0), rgb(255, 255, 255));&quot;&gt;phẩm&lt;/span&gt;&lt;/div&gt;" style="edgeStyle=orthogonalEdgeStyle;html=1;labelBackgroundColor=none;endArrow=open;endSize=8;strokeColor=light-dark(#000000,#FF9090);fontFamily=Helvetica;fontSize=12;align=center;" edge="1" parent="1" source="pa2VXU8jz2tNjKxrIKRh-28" target="pa2VXU8jz2tNjKxrIKRh-29">
          <mxGeometry y="30" relative="1" as="geometry">
            <mxPoint as="offset" />
          </mxGeometry>
        </mxCell>
        <mxCell id="pa2VXU8jz2tNjKxrIKRh-33" value="Cập nhật danh&lt;div&gt;&lt;span style=&quot;background-color: transparent; color: light-dark(rgb(0, 0, 0), rgb(255, 255, 255));&quot;&gt;sách mới&lt;/span&gt;&lt;/div&gt;" style="html=1;labelBackgroundColor=none;endArrow=open;endSize=8;strokeColor=#000000;fontFamily=Helvetica;fontSize=12;align=center;entryX=0;entryY=0.5;exitX=1;exitY=0.5;exitDx=0;exitDy=0;edgeStyle=orthogonalEdgeStyle;fillColor=#000000;" edge="1" parent="1" source="pa2VXU8jz2tNjKxrIKRh-29" target="pa2VXU8jz2tNjKxrIKRh-31">
          <mxGeometry x="-0.125" y="20" relative="1" as="geometry">
            <mxPoint x="-1" as="offset" />
          </mxGeometry>
        </mxCell>
        <mxCell id="pa2VXU8jz2tNjKxrIKRh-37" value="" style="ellipse;html=1;shape=endState;fillColor=#000000;strokeColor=#ff0000;" vertex="1" parent="1">
          <mxGeometry x="1540" y="315" width="30" height="30" as="geometry" />
        </mxCell>
      </root>
    </mxGraphModel>
  </diagram>
</mxfile>
